PathFileType	4	(X/Y/Z)	C:/Users/beibeiliu/ov580/test_trc/User2\sequence.37_training_dense_left.trc
DataRate	CameraRate	NumFrames	NumMarkers	Units	OrigDataRate	OrigDataStartFrame	OrigNumFrames
120	120	23	19	mm	120	1	88
Frame#	Time	ThumbCMC			ThumbMCP			ThumbIP			ThumbTip			IndexMCP			IndexPIP			IndexTip			MiddleMCP			MiddlePIP			MiddleTip			RingMCP			RingPIP			RingTip			PinkyMCP			PinkyPIP			PinkyTip			BackHand1			BackHand2			BackHand3	
		X0	Y0	Z0	X1	Y1	Z1	X2	Y2	Z2	X3	Y3	Z3	X4	Y4	Z4	X5	Y5	Z5	X6	Y6	Z6	X7	Y7	Z7	X8	Y8	Z8	X9	Y9	Z9	X10	Y10	Z10	X11	Y11	Z11	X12	Y12	Z12	X13	Y13	Z13	X14	Y14	Z14	X15	Y15	Z15	X16	Y16	Z16	X17	Y17	Z17	X18	Y18	Z18	
0	0	-262.089	48.3894	5.64185	-242.604	54.7362	-29.234	-224.1	45.3618	-61.4364	-206.368	19.1639	-73.3394	-279.72	-8.46149	-51.8608	-283.487	-18.9727	-77.4688	-284.525	-34.2198	-106.858	-268.734	-26.0864	-57.3525	-269.834	-37.9627	-87.0165	-268.489	-49.5694	-116.376	-236.702	-26.2099	-59.6602	-217.875	-13.0589	-78.5603	-203.101	15.4856	-60.11	-208.643	-25.6759	-42.5791	-192.606	-1.56583	-52.6346	-195.907	24.3794	-31.5978	-249.846	-25.5385	2.57443	-249.69	-15.1688	40.4782	-274.611	3.18063	13.8133	
1	0.00833333	-259.897	47.2679	3.53233	-241.44	50.5438	-31.6204	-225.623	33.1651	-57.8488	-213.158	7.48468	-71.64	-291.74	-3.98691	-52.2516	-298.657	-15.6734	-79.2999	-302.169	-28.2472	-106.201	-287.365	-23.4876	-57.2198	-291.963	-33.8117	-82.1871	-293.939	-47.5679	-114.113	-251.989	-34.2741	-56.2245	-233.128	-21.0594	-77.9804	-210.766	6.15123	-57.2614	-228.354	-34.254	-38.8783	-202.288	-10.9098	-51.9462	-198.715	10.6727	-31.9289	-262.04	-25.5873	7.17243	-263.332	-14.8171	38.6427	-282.329	8.89439	12.2806	
2	0.0166667	-255.638	52.1122	5.58247	-236.843	51.5425	-27.9011	-224.508	29.1602	-61.1936	-218.888	6.2255	-68.338	-301.232	14.2465	-58.592	-306.46	3.43086	-79.413	-315.388	-2.83976	-105.084	-298.262	-10.2338	-55.2792	-306.44	-17.2202	-84.9488	-313.33	-25.392	-114.221	-270.719	-23.2328	-56.2103	-243.151	-18.1229	-78.3569	-219.052	-1.68818	-57.3967	-245.075	-36.3432	-41.4668	-215.368	-20.339	-52.0509	-208.935	0.353512	-30.3824	-277.358	-19.4922	5.80413	-274.563	-7.43236	36.8488	-286.553	19.083	14.372	
3	0.025	-247.867	56.0785	3.37855	-230.342	47.0926	-26.4659	-224.471	25.8282	-56.458	-225.632	2.58403	-67.9146	-299.956	34.8351	-57.2543	-310.264	33.5646	-83.295	-317.545	23.6973	-103.301	-304.838	15.8171	-55.7447	-315.445	10.9295	-88.2955	-324.432	5.11455	-115.783	-285.26	-8.09723	-59.8889	-258.685	-13.0041	-79.0085	-232.289	-4.87671	-61.0016	-266.561	-26.0324	-41.3342	-234.17	-21.3325	-53.914	-218.404	-7.40246	-29.4678	-291.414	-4.05115	1.42747	-287.077	-0.253587	35.9755	-288.624	34.7459	12.1805	
4	0.0333333	-233.819	48.6982	12.3161	-220.975	37.9901	-25.0235	-222.074	19.3013	-55.6153	-238.576	-2.69254	-68.9697	-286.121	62.1065	-50.1702	-296.645	62.9994	-73.866	-307.834	64.8812	-98.9267	-302.359	47.4958	-57.886	-310.842	48.5009	-87.7173	-321.316	48.9958	-110.787	-296.317	10.5795	-56.9437	-271.441	0.532865	-78.3276	-245.852	-7.57184	-54.5183	-285.721	-16.8232	-42.9587	-255.452	-19.6612	-52.4728	-235.585	-15.3596	-26.0903	-300.112	17.8146	4.34943	-291.252	22.5429	36.1529	-278.214	49.198	15.7373	
5	0.0416667	-223.014	40.5024	12.2581	-214.705	27.4593	-20.8154	-228.736	12.7388	-53.3831	-250.567	-0.442037	-66.001	-264.294	76.3348	-42.7264	-279.085	82.0821	-69.9786	-285.643	89.9741	-91.6458	-289.163	66.8327	-50.6177	-294.63	75.4457	-78.1197	-306.604	80.0879	-105.202	-296.883	34.2028	-52.2561	-280.897	13.9308	-74.2944	-260.678	-3.97639	-54.714	-297.021	6.82292	-39.894	-273.389	-10.7569	-50.7248	-254.625	-16.6978	-23.8227	-291.861	39.9692	12.3745	-285.842	35.3736	42.904	-259.181	59.1659	22.0827	
6	0.05	-210.577	33.8536	16.1483	-206.96	17.8326	-18.5665	-223.735	5.21523	-44.9067	-249.464	0.444536	-57.9983	-249.15	77.9229	-43.1091	-251.712	85.9432	-64.5246	-262.675	93.8227	-89.2728	-271.32	75.2932	-47.263	-272.802	83.3316	-73.0539	-282.006	92.0757	-104.711	-281.982	47.5094	-46.039	-276.91	24.0201	-69.3131	-257.35	-1.36316	-46.8156	-295.711	18.9595	-35.1404	-274.473	-7.79155	-43.6098	-259.388	-14.8995	-17.8973	-278.19	49.6342	16.3901	-276.008	44.7677	49.1294	-246.245	61.0847	28.1146	
7	0.0583333	-197.369	27.003	27.1762	-194.427	6.75406	-7.39705	-212.894	-4.80701	-41.3776	-238.244	-9.30443	-53.4705	-226.599	68.4883	-43.201	-228.716	73.6033	-71.4913	-237.404	77.5243	-93.0773	-247.821	67.634	-48.9333	-249.561	70.8503	-76.9539	-251.092	75.1232	-112.425	-264.631	42.1562	-45.927	-263.848	13.6515	-63.4288	-250.235	-8.67357	-39.7824	-281.488	17.3567	-33.7102	-265.877	-9.83243	-36.6198	-251.104	-16.5565	-4.92082	-268.543	51.4566	18.1412	-262.94	50.692	48.9185	-227.709	61.699	28.713	
8	0.0666667	-188.275	25.3221	32.9859	-182.95	0.554227	3.95637	-196.658	-16.7586	-23.1418	-221.991	-23.9359	-39.2539	-210.238	51.7766	-41.7075	-210.965	50.2579	-73.1208	-211.094	49.3449	-100.533	-230.167	48.0271	-47.7696	-230.801	42.8892	-82.6876	-228.141	38.8182	-111.552	-248.463	22.058	-45.8503	-241.654	-7.63563	-55.8652	-226.819	-22.8827	-24.1182	-265.207	2.31569	-25.7381	-246.038	-25.6085	-24.8846	-234.87	-25.9674	8.23365	-255.589	43.9034	14.7219	-256.028	47.6482	50.3952	-220.721	56.0364	29.7736	
9	0.075	-185.235	30.3097	39.2844	-167.121	-1.04582	15.641	-172.098	-27.0694	-7.3769	-196.009	-41.3755	-18.9928	-199.195	35.4803	-43.8731	-198.232	26.7142	-67.7401	-195.146	18.1452	-95.514	-216.547	26.3188	-50.8713	-209.729	15.7985	-78.4974	-204.957	3.68255	-105.743	-229.116	-0.77628	-42.9429	-219.477	-30.7724	-45.391	-205.386	-36.4543	-10.4013	-243.282	-17.0581	-18.2029	-220.967	-42.724	-6.64413	-213.992	-30.6074	21.5119	-253.229	29.7692	11.8577	-255.352	41.0662	41.1632	-220.01	53.6755	26.2958	
10	0.0833333	-184.606	38.3108	37.0734	-162.153	7.66592	24.6544	-158.558	-24.404	6.18906	-174.841	-47.2258	-6.80527	-195.513	23.9216	-44.3354	-185.854	14.5821	-66.6615	-179.776	-1.10499	-92.2729	-209.18	11.2042	-51.2162	-197.69	-1.21454	-73.7559	-189.094	-18.9125	-98.8467	-219.609	-20.3031	-34.1355	-196.948	-42.6309	-31.584	-183.82	-38.1331	5.17269	-226.093	-31.2886	-9.78269	-198.888	-46.9548	6.76889	-197.153	-28.9217	32.7002	-250.03	17.0341	10.0525	-255.881	31.3096	36.0193	-226.838	49.339	19.5322	
11	0.0916667	-194.064	47.9025	39.7309	-157.378	26.5584	31.5451	-142.803	-4.76491	17.8039	-153.408	-31.6074	9.37257	-189.549	23.4461	-43.0558	-175.663	12.0547	-64.5439	-165.379	-1.62503	-82.0849	-200.845	6.20687	-45.5251	-183.532	-8.6015	-70.1696	-164.363	-23.905	-92.5774	-201.647	-23.6927	-25.7127	-172.364	-36.6529	-20.0477	-164.959	-29.5503	14.9678	-201.182	-35.7538	-2.61821	-178.142	-38.3447	16.1537	-183.148	-17.8719	44.2473	-245.142	6.48635	7.15426	-259.953	20.7707	34.3253	-229.291	45.9647	14.7523	
12	0.1	-205.384	59.0607	32.9225	-168.274	49.8341	32.9543	-138.271	27.5551	24.875	-134.686	-2.13338	17.5086	-186.243	30.2601	-42.6297	-168.622	23.7716	-60.8641	-152.794	12.099	-75.6842	-189.283	10.5684	-43.8629	-166.287	-1.40165	-64.565	-145.904	-11.9146	-80.7982	-181.801	-17.8449	-19.7155	-149.388	-15.0697	-8.83791	-150.167	-2.27118	23.9924	-184.705	-28.0587	6.91162	-159.023	-19.2021	25.126	-171.886	4.67886	48.9956	-233.264	3.55094	7.26523	-257.842	13.9162	33.8315	-238.155	41.6998	13.3663	
13	0.108333	-219.287	70.7803	33.9962	-177.071	76.257	31.1828	-143.492	60.6972	25.4731	-130.536	33.099	23.2835	-186.326	38.7677	-36.914	-166.706	37.6005	-55.2604	-141.946	31.5671	-73.4268	-179.259	19.7453	-41.7446	-153.662	18.1999	-59.2576	-129.311	14.6944	-73.3812	-163.669	2.97243	-15.5621	-137.291	10.8713	-4.47405	-142.052	28.7385	27.0012	-163.134	-5.21734	10.1767	-145.737	12.0895	33.6966	-166.046	28.7991	50.2579	-222.099	3.46078	9.68529	-250.295	6.53392	30.4466	-243.561	38.4495	11.1799	
14	0.116667	-231.805	73.9815	28.4623	-196.897	92.9856	27.7694	-158.544	89.9779	23.3815	-138.002	67.6062	22.8587	-184.787	47.5804	-39.1577	-165.462	50.1699	-55.5909	-141.908	52.0923	-72.3331	-175.923	33.1039	-38.0019	-149.85	37.9747	-56.9409	-118.991	40.2738	-74.0864	-155.828	23.3874	-14.0028	-131.447	41.4691	-3.15559	-142.883	57.7343	24.4432	-149.517	14.1964	14.2803	-137.711	37.8668	31.1574	-166.017	50.2515	52.3123	-211.26	2.37982	14.4329	-236.619	3.55435	33.0869	-238.935	31.8008	9.34067	
15	0.125	-240.066	70.3687	24.2498	-210.307	95.423	16.9969	-172.007	100.551	8.11273	-148.899	87.5746	11.3851	-194.955	50.8984	-44.4015	-177.471	56.8982	-65.2213	-152.027	57.7701	-83.7409	-178.928	34.7877	-41.4436	-156.127	46.6011	-67.2354	-133.024	52.585	-83.6742	-157.206	33.5839	-18.9502	-138.145	58.9814	-14.2109	-150.087	73.7353	16.6242	-147.383	29.5148	8.8541	-142.402	58.9502	21.6104	-170.083	63.6308	41.0858	-202.894	8.18459	11.935	-228.099	0.872857	34.9084	-238.228	27.2837	5.36289	
16	0.133333	-249.806	63.5118	20.0251	-222.064	90.9636	1.95896	-189.909	97.2692	-8.72748	-161.818	83.0578	-11.5645	-211.218	40.7756	-50.444	-193.053	44.6839	-76.48	-177.702	47.122	-97.1178	-191.745	27.311	-48.6344	-173.397	34.78	-77.7877	-155.062	42.8557	-100.47	-168.841	34.9698	-32.5329	-148.982	60.9298	-29.2777	-163.798	76.2896	2.94081	-154.87	33.9338	-5.389	-150.42	62.6202	4.41657	-174.346	64.9136	25.969	-207.248	3.77406	11.7203	-226.566	-2.56992	32.6306	-241.445	18.7145	5.2859	
17	0.141667	-258.301	57.9141	12.9011	-236.194	80.725	-7.33348	-205.159	85.0011	-27.7173	-177.264	72.0673	-35.0214	-235.391	24.386	-57.0201	-220.006	21.3423	-85.2459	-208.915	20.4072	-108.052	-213.609	9.77568	-60.848	-203.134	13.0628	-88.5111	-184.76	14.998	-118.969	-184.442	17.9784	-45.0177	-167.422	43.6918	-49.8253	-181.097	64.9683	-20.3414	-171.896	20.4193	-20.4227	-162.732	53.6978	-15.1718	-181.181	59.181	6.74534	-218.409	-3.25415	5.41345	-230.798	-7.1713	34.1569	-251.779	10.428	8.5062	
18	0.15	-264.069	50.596	6.82748	-243.18	64.947	-18.2617	-214.191	61.7265	-48.1026	-193.036	44.9275	-50.6572	-256.16	0.990106	-53.8473	-250.765	-9.63118	-82.4204	-238.778	-18.7174	-106.996	-239.849	-15.7863	-55.9682	-229.306	-23.7234	-90.5261	-219.828	-27.0047	-115.375	-206.314	-8.52353	-48.0353	-184.982	15.7808	-60.8336	-191.572	43.1621	-33.6088	-187.436	-2.88794	-27.7921	-177.909	29.8433	-33.6155	-191.135	44.4453	-12.2709	-233.302	-13.7263	9.49524	-241.684	-12.163	41.4554	-262.035	4.709	14.1803	
19	0.158333	-266.387	41.191	5.49476	-249.795	50.5599	-29.4479	-227.102	39.3696	-56.1984	-205.879	20.3597	-65.5339	-274.071	-24.1608	-47.4933	-274.139	-35.5095	-69.7204	-265.797	-48.911	-97.2817	-259.875	-40.3274	-48.8757	-258.828	-50.049	-78.8065	-248.828	-61.4844	-106.244	-221.474	-32.7901	-47.9238	-206.542	-14.5052	-65.1401	-203.54	19.9053	-45.8636	-201.97	-26.5358	-27.0918	-188.188	1.36304	-42.7501	-196.402	26.2271	-22.8697	-244.226	-26.9581	13.9212	-246.889	-11.2818	47.3783	-275.06	1.08854	19.3319	
20	0.166667	-267.017	39.9911	7.75953	-252.732	42.7481	-33.0107	-234.314	27.9419	-61.8723	-216.085	6.47731	-70.9986	-288.443	-23.3647	-39.9346	-291.046	-41.8437	-67.3794	-288.461	-55.2983	-93.9373	-274.443	-44.096	-41.428	-280.315	-55.6566	-72.0622	-275.78	-70.3057	-102.58	-239.775	-41.2929	-44.1287	-220.11	-24.2486	-68.0352	-214.675	6.72831	-53.8484	-216.742	-35.9774	-29.8108	-201.579	-11.387	-46.7966	-205.919	15.9079	-30.8856	-251.474	-28.1711	16.3466	-251.364	-14.3542	45.2738	-277.755	-2.90621	20.935	
21	0.175	-264.412	46.8484	6.2755	-247.086	51.1989	-26.7036	-233.227	34.3026	-60.1301	-220.534	13.5921	-69.8337	-299.771	-5.50555	-45.0038	-307.14	-14.8538	-70.2549	-308.914	-26.7216	-95.3824	-294.626	-25.6388	-48.5972	-297.898	-37.5641	-78.4825	-299.946	-46.5597	-105.976	-258.506	-32.9504	-47.6474	-237.998	-19.5745	-72.6984	-219.933	6.20964	-57.7757	-232.959	-32.467	-38.0954	-213.715	-8.57021	-50.6273	-208.906	12.3579	-31.2926	-263.851	-23.462	12.589	-257.169	-11.7936	46.304	-281.926	8.82559	22.3012	
22	0.183333	-246.092	55.1316	13.8069	-231.431	52.7562	-24.4349	-223.203	37.6106	-57.6772	-221.562	12.9391	-74.0588	-299.121	34.3834	-43.9008	-307.565	29.7416	-72.276	-312.674	23.7935	-97.9839	-301.678	11.2575	-51.3652	-307.729	4.1987	-80.4705	-313.893	0.760419	-116.121	-275.113	-7.20061	-52.5157	-251.28	-6.2414	-76.9874	-224.666	11.9035	-59.7258	-249.248	-25.0675	-43.8762	-220.901	-7.66149	-51.8796	-209.138	7.94435	-29.5402	-277.374	-11.6854	8.22188	-269.834	-7.00046	43.9897	-282.053	27.2509	23.1501	
